<svg xmlns="http://www.w3.org/2000/svg" viewBox="0 0 720 440" fill="none">
<defs>
  <radialGradient id="bg" cx="0" cy="0" r="1" gradientTransform="translate(540 80) rotate(140) scale(430 310)">
    <stop stop-color="#8B4DFF" stop-opacity=".22"/><stop offset="1" stop-color="#020207" stop-opacity="0"/>
  </radialGradient>
  <filter id="glow"><feGaussianBlur stdDeviation="18"/></filter>
</defs>
<rect width="720" height="440" rx="36" fill="#05050B"/>
<rect width="720" height="440" rx="36" fill="url(#bg)"/>
<circle cx="580" cy="80" r="75" fill="#8B4DFF" opacity=".12" filter="url(#glow)"/>

        <rect x="115" y="130" width="280" height="170" rx="24" fill="#0B0914" stroke="#8B4DFF" stroke-opacity=".35"/>
        <rect x="145" y="165" width="150" height="12" rx="6" fill="#B886FF" opacity=".8"/>
        <rect x="145" y="192" width="210" height="8" rx="4" fill="#FFFFFF" opacity=".14"/>
        <rect x="145" y="214" width="180" height="8" rx="4" fill="#FFFFFF" opacity=".09"/>
        <circle cx="350" cy="255" r="24" fill="#8B4DFF" opacity=".22"/>
        <path d="M340 255l7 7 14-16" stroke="#C9A7FF" stroke-width="5" stroke-linecap="round" stroke-linejoin="round"/>
        <path d="M405 216C470 178 510 210 565 175" stroke="#8B4DFF" stroke-width="3" stroke-dasharray="8 10" opacity=".55"/>
        <circle cx="470" cy="190" r="18" fill="#0B0914" stroke="#B886FF" stroke-width="2"/>
        <circle cx="565" cy="175" r="24" fill="#8B4DFF" opacity=".26"/>
        <path d="M555 175h20M565 165v20" stroke="#D6BFFF" stroke-width="3" stroke-linecap="round"/>

<text x="60" y="365" fill="#F7F5FB" font-family="Arial, sans-serif" font-size="28" font-weight="700">Creator workflow</text>
<text x="60" y="398" fill="#9D96A8" font-family="Arial, sans-serif" font-size="15">Scope, payment, progress, and delivery stay connected.</text>
</svg>