<svg xmlns="http://www.w3.org/2000/svg" viewBox="0 0 1600 900" fill="none">
<defs>
  <radialGradient id="g1"><stop stop-color="#8B4DFF" stop-opacity=".34"/><stop offset="1" stop-color="#8B4DFF" stop-opacity="0"/></radialGradient>
  <radialGradient id="g2"><stop stop-color="#B886FF" stop-opacity=".18"/><stop offset="1" stop-color="#B886FF" stop-opacity="0"/></radialGradient>
  <linearGradient id="streak"><stop stop-color="#B886FF" stop-opacity="0"/><stop offset=".5" stop-color="#B886FF"/><stop offset="1" stop-color="#B886FF" stop-opacity="0"/></linearGradient>
  <filter id="blur"><feGaussianBlur stdDeviation="24"/></filter>
</defs>
<ellipse cx="1180" cy="250" rx="360" ry="260" fill="url(#g1)" filter="url(#blur)"/>
<ellipse cx="380" cy="650" rx="300" ry="220" fill="url(#g2)" filter="url(#blur)"/>
<circle cx="802" cy="811" r="1" fill="#D5B8FF" opacity="0.21"/><circle cx="1333" cy="509" r="1" fill="#D5B8FF" opacity="0.46"/><circle cx="101" cy="338" r="2.2" fill="#B886FF" opacity="0.29"/><circle cx="1209" cy="728" r="2.8" fill="#D5B8FF" opacity="0.45"/><circle cx="400" cy="586" r="1.5" fill="#B886FF" opacity="0.33"/><circle cx="1332" cy="719" r="1" fill="#D5B8FF" opacity="0.36"/><circle cx="878" cy="386" r="1.2" fill="#6F46D8" opacity="0.39"/><circle cx="178" cy="97" r="1.8" fill="#8B4DFF" opacity="0.35"/><circle cx="1523" cy="66" r="2.2" fill="#8B4DFF" opacity="0.19"/><circle cx="898" cy="598" r="1.8" fill="#6F46D8" opacity="0.29"/><circle cx="1282" cy="541" r="2.8" fill="#B886FF" opacity="0.31"/><circle cx="1043" cy="314" r="1.2" fill="#6F46D8" opacity="0.14"/><circle cx="801" cy="668" r="1.8" fill="#8B4DFF" opacity="0.13"/><circle cx="909" cy="657" r="2.2" fill="#B886FF" opacity="0.26"/><circle cx="296" cy="152" r="1" fill="#8B4DFF" opacity="0.21"/><circle cx="1331" cy="798" r="1.2" fill="#8B4DFF" opacity="0.21"/><circle cx="795" cy="240" r="1.2" fill="#6F46D8" opacity="0.37"/><circle cx="786" cy="336" r="1.5" fill="#6F46D8" opacity="0.32"/><circle cx="985" cy="722" r="1.8" fill="#D5B8FF" opacity="0.30"/><circle cx="1058" cy="138" r="1.5" fill="#B886FF" opacity="0.29"/><circle cx="1480" cy="604" r="2.2" fill="#B886FF" opacity="0.49"/><circle cx="391" cy="789" r="2.2" fill="#B886FF" opacity="0.22"/><circle cx="1548" cy="855" r="1.5" fill="#B886FF" opacity="0.36"/><circle cx="157" cy="556" r="1.2" fill="#B886FF" opacity="0.41"/><circle cx="584" cy="203" r="2.2" fill="#B886FF" opacity="0.25"/><circle cx="867" cy="712" r="2.2" fill="#8B4DFF" opacity="0.40"/><circle cx="1143" cy="401" r="1.2" fill="#B886FF" opacity="0.23"/><circle cx="1245" cy="120" r="2.8" fill="#8B4DFF" opacity="0.35"/><circle cx="179" cy="101" r="2.2" fill="#D5B8FF" opacity="0.48"/><circle cx="1490" cy="195" r="2.2" fill="#D5B8FF" opacity="0.44"/><circle cx="182" cy="760" r="1" fill="#D5B8FF" opacity="0.40"/><circle cx="88" cy="497" r="2.2" fill="#D5B8FF" opacity="0.24"/><circle cx="611" cy="284" r="1.5" fill="#8B4DFF" opacity="0.14"/><circle cx="595" cy="472" r="1" fill="#B886FF" opacity="0.33"/><circle cx="617" cy="95" r="2.8" fill="#8B4DFF" opacity="0.36"/><circle cx="729" cy="513" r="1" fill="#6F46D8" opacity="0.21"/><circle cx="766" cy="862" r="2.2" fill="#6F46D8" opacity="0.14"/><circle cx="672" cy="339" r="1.2" fill="#B886FF" opacity="0.26"/><circle cx="515" cy="78" r="2.8" fill="#8B4DFF" opacity="0.16"/><circle cx="1223" cy="427" r="2.2" fill="#8B4DFF" opacity="0.12"/><circle cx="1402" cy="105" r="2.8" fill="#D5B8FF" opacity="0.46"/><circle cx="626" cy="580" r="1" fill="#D5B8FF" opacity="0.15"/>
<rect x="318" y="194" width="85" height="1" rx=".5" fill="url(#streak)" opacity="0.14" transform="rotate(13 318 194)"/><rect x="166" y="198" width="75" height="1" rx=".5" fill="url(#streak)" opacity="0.15" transform="rotate(22 166 198)"/><rect x="1123" y="139" width="81" height="1" rx=".5" fill="url(#streak)" opacity="0.18" transform="rotate(-21 1123 139)"/><rect x="273" y="285" width="90" height="1" rx=".5" fill="url(#streak)" opacity="0.09" transform="rotate(-14 273 285)"/><rect x="908" y="718" width="87" height="1" rx=".5" fill="url(#streak)" opacity="0.11" transform="rotate(21 908 718)"/><rect x="431" y="475" width="74" height="1" rx=".5" fill="url(#streak)" opacity="0.12" transform="rotate(-18 431 475)"/><rect x="222" y="162" width="49" height="1" rx=".5" fill="url(#streak)" opacity="0.15" transform="rotate(7 222 162)"/><rect x="1205" y="630" width="42" height="1" rx=".5" fill="url(#streak)" opacity="0.10" transform="rotate(7 1205 630)"/>
</svg>