<svg xmlns="http://www.w3.org/2000/svg" viewBox="0 0 64 64" role="img" aria-label="QuestPay mark"><defs><linearGradient id="q" x1="10" y1="8" x2="56" y2="58" gradientUnits="userSpaceOnUse"><stop stop-color="#7c5cff"/><stop offset="0.55" stop-color="#3978ff"/><stop offset="1" stop-color="#22d3ff"/></linearGradient></defs><rect width="64" height="64" rx="18" fill="#080b18"/><path d="M32 12c-11.046 0-20 8.954-20 20s8.954 20 20 20c3.726 0 7.213-1.018 10.199-2.79l5.296 5.296 7.071-7.071-5.032-5.032A19.9 19.9 0 0 0 52 32c0-11.046-8.954-20-20-20Zm0 9c6.075 0 11 4.925 11 11 0 1.487-.295 2.905-.83 4.198l-5.134-5.134-7.071 7.071 4.768 4.768A11.04 11.04 0 0 1 32 43c-6.075 0-11-4.925-11-11s4.925-11 11-11Z" fill="url(#q)"/><path d="M28 32h9" stroke="#f7f8ff" stroke-width="3" stroke-linecap="round"/></svg>