<svg xmlns="http://www.w3.org/2000/svg" width="512" height="512" viewBox="0 0 512 512" fill="none" role="img" aria-labelledby="title desc">
<title id="title">QuestPay mark</title>
<desc id="desc">Geometric Q mark with a payment path and completion check.</desc>
<defs>
  <linearGradient id="g" x1="82" y1="66" x2="438" y2="448" gradientUnits="userSpaceOnUse">
    <stop stop-color="#22D3FF"/>
    <stop offset=".34" stop-color="#3978FF"/>
    <stop offset=".68" stop-color="#7C5CFF"/>
    <stop offset="1" stop-color="#D946EF"/>
  </linearGradient>
  <filter id="shadow" x="-30%" y="-30%" width="160%" height="160%">
    <feDropShadow dx="0" dy="18" stdDeviation="18" flood-color="#050816" flood-opacity=".5"/>
  </filter>
</defs>
<rect x="28" y="28" width="456" height="456" rx="132" fill="#0B1022"/>
<rect x="29" y="29" width="454" height="454" rx="131" stroke="#FFFFFF" stroke-opacity=".45" stroke-width="2"/>
<g filter="url(#shadow)">
  <path d="M256 112c-86.2 0-156 65.8-156 147s69.8 147 156 147c28.5 0 55.2-7.2 78.2-19.8l48.6 48.6c9.4 9.4 24.6 9.4 34 0s9.4-24.6 0-34l-45.6-45.6C396.7 329 412 296 412 259c0-81.2-69.8-147-156-147Zm0 54c55.3 0 100 41.6 100 93s-44.7 93-100 93-100-41.6-100-93 44.7-93 100-93Z" fill="#FFFFFF"/>
  <path d="M208 257.5 244.5 294 312 219" stroke="#F8FAFF" stroke-width="27" stroke-linecap="round" stroke-linejoin="round"/>
</g>
</svg>