<svg xmlns="http://www.w3.org/2000/svg" width="1500" height="400" viewBox="0 0 1500 400">
  <defs>
    <linearGradient id="g" x1="56" y1="46" x2="332" y2="344" gradientUnits="userSpaceOnUse">
      <stop stop-color="#B768FF"/><stop offset=".48" stop-color="#7C3CFF"/><stop offset="1" stop-color="#4C20D8"/>
    </linearGradient>
    <filter id="glow" x="-30%" y="-30%" width="160%" height="160%">
      <feGaussianBlur stdDeviation="8" result="b"/>
      <feMerge><feMergeNode in="b"/><feMergeNode in="SourceGraphic"/></feMerge>
    </filter>
  </defs>
  <g transform="translate(20 20)">
    <rect width="360" height="360" rx="96" fill="#09070F"/>
    <g filter="url(#glow)" fill="none" stroke="url(#g)" stroke-width="38" stroke-linecap="round">
      <path d="M78 180c0-51 35-86 82-86h21c47 0 82 35 82 86s-35 86-82 86h-21c-47 0-82-35-82-86Z"/>
      <path d="M132 154h72c39 0 68 27 68 65s-29 65-68 65h-13"/>
    </g>
    <path d="M230 233l38 38" stroke="#F3ECFF" stroke-width="24" stroke-linecap="round"/>
    <circle cx="180" cy="180" r="12" fill="#F7F2FF"/>
  </g>
  <text x="430" y="246" fill="#F8F6FC" font-family="Inter, Manrope, Arial, sans-serif" font-size="178" font-weight="750" letter-spacing="-8">QuestPay</text>
</svg>
